<svg id="visual" viewBox="0 0 960 540" width="960" height="540" xmlns="http://www.w3.org/2000/svg" xmlns:xlink="http://www.w3.org/1999/xlink" version="1.1"><rect x="0" y="0" width="960" height="540" fill="#020617"></rect><defs><linearGradient id="grad1_0" x1="43.8%" y1="0%" x2="100%" y2="100%"><stop offset="14.444444444444446%" stop-color="#020617" stop-opacity="1"></stop><stop offset="85.55555555555554%" stop-color="#020617" stop-opacity="1"></stop></linearGradient></defs><defs><linearGradient id="grad2_0" x1="0%" y1="0%" x2="56.3%" y2="100%"><stop offset="14.444444444444446%" stop-color="#020617" stop-opacity="1"></stop><stop offset="85.55555555555554%" stop-color="#020617" stop-opacity="1"></stop></linearGradient></defs><g transform="translate(960, 0)"><path d="M0 459C-83.2 448.7 -166.4 438.3 -229.5 397.5C-292.6 356.7 -335.7 285.3 -370.7 214C-405.6 142.7 -432.3 71.3 -459 0L0 0Z" fill="#0f172a"></path></g><g transform="translate(0, 540)"><path d="M0 -459C78 -443.8 156 -428.7 226.5 -392.3C297 -356 360 -298.4 397.5 -229.5C435 -160.6 447 -80.3 459 0L0 0Z" fill="#0f172a"></path></g></svg>